#!OML:ASF F:\VICON\USERDATA\INSTALL\rory3\rory3.ASF
:FULLY-SPECIFIED
:DEGREES
1
root 1.1565 17.6939 0.0029964 14.7741 2.00596 -3.1796
lowerback -11.3352 -1.02991 5.8498
upperback -6.48244 -1.92907 1.51132
thorax -0.579441 -1.0987 -1.9147
lowerneck -15.8735 -1.60482 -7.29682
upperneck 25.3382 -1.50925 4.55838
head 10.8859 -0.841542 2.67814
rclavicle -1.7667e-014 1.19271e-015
rhumerus -43.4923 -3.96631 -77.0936
rradius 37.7658
rwrist 3.12129
rhand -16.8924 -51.5518
rfingers 7.12502
rthumb 9.33917 -81.3249
lclavicle -1.7667e-014 1.19271e-015
lhumerus -38.6884 8.55734 78.5513
lradius 32.3678
lwrist 16.6423
lhand -34.8137 -27.5628
lfingers 7.12502
lthumb -7.96499 2.26713
rfemur -8.83852 17.8159 13.4834
rtibia 4.98829
rfoot -1.71769 -34.3852
rtoes -4.13795
lfemur -16.8767 -11.7907 -7.28095
ltibia 13.2104
lfoot -7.05816 22.7779
ltoes -0.24281
2
root 1.14943 17.693 -0.0134779 14.813 1.87501 -3.18027
lowerback -11.0741 -0.995406 5.73984
upperback -6.5676 -1.8507 1.54188
thorax -0.798748 -1.06323 -1.80495
lowerneck -15.8916 -1.61218 -7.43713
upperneck 25.4261 -1.51799 4.69321
head 10.9249 -0.8436 2.75205
rclavicle -1.44989e-014 1.86858e-014
rhumerus -43.3234 -4.08704 -77.0082
rradius 37.5808
rwrist 3.13039
rhand -16.7106 -51.8307
rfingers 7.12502
rthumb 9.51462 -81.5959
lclavicle -1.44989e-014 1.86858e-014
lhumerus -38.7677 8.48717 78.6263
lradius 32.4798
lwrist 16.7649
lhand -34.9221 -27.3234
lfingers 7.12502
lthumb -8.06961 2.50255
rfemur -9.51672 18.0244 13.3778
rtibia 5.86357
rfoot -1.94322 -34.483
rtoes -4.8382
lfemur -16.8732 -11.7663 -7.23587
ltibia 12.9976
lfoot -4.62396 22.6814
ltoes -6.01983
3
root 1.1499 17.6939 -0.0203496 14.8169 1.91356 -3.26036
lowerback -10.9858 -0.997042 5.84627
upperback -6.60446 -1.85436 1.5665
thorax -0.889468 -1.0706 -1.83585
lowerneck -15.7574 -1.58287 -7.43794
upperneck 25.3699 -1.47659 4.66176
head 10.8744 -0.82917 2.74493
rclavicle 1.35795e-014 1.88845e-014
rhumerus -43.2863 -4.1283 -76.9767
rradius 37.466
rwrist 3.25107
rhand -16.757 -51.8587
rfingers 7.12502
rthumb 9.46981 -81.6259
lclavicle 1.35795e-014 1.88845e-014
lhumerus -38.8297 8.49646 78.6368
lradius 32.5804
lwrist 16.7493
lhand -34.9461 -26.9611
lfingers 7.12502
lthumb -8.09279 2.86398
rfemur -9.4887 18.0041 13.479
rtibia 5.77412
rfoot -1.76038 -34.4721
rtoes -5.31268
lfemur -17.1068 -11.6768 -7.14819
ltibia 13.3931
lfoot -6.84033 22.775
ltoes -0.805687
4
root 1.15369 17.6951 -0.0204457 14.8252 1.98116 -3.37853
lowerback -10.938 -1.0077 6.02983
upperback -6.64188 -1.87953 1.59948
thorax -0.963708 -1.09049 -1.90405
lowerneck -15.6598 -1.56234 -7.42769
upperneck 25.3177 -1.44865 4.63168
head 10.8336 -0.819364 2.73471
rclavicle 1.9543e-014 1.07344e-014
rhumerus -43.3382 -4.07887 -76.9752
rradius 37.439
rwrist 3.33446
rhand -16.8232 -51.7951
rfingers 7.12502
rthumb 9.40591 -81.5653
lclavicle 1.9543e-014 1.07344e-014
lhumerus -38.8905 8.58544 78.6003
lradius 32.5976
lwrist 16.7267
lhand -34.8788 -26.9366
lfingers 7.12502
lthumb -8.02783 2.89098
rfemur -9.43166 17.9594 13.6188
rtibia 5.70413
rfoot -1.66181 -34.4818
rtoes -5.45784
lfemur -17.123 -11.6234 -7.03236
ltibia 13.4283
lfoot -6.99534 22.6969
ltoes -1.13923
5
root 1.14909 17.6967 -0.0471368 16.237 -0.891799 -4.25701
lowerback -11.6126 0.084018 6.41714
upperback -7.04675 -0.511674 1.748
thorax -0.928705 -0.423439 -1.83763
lowerneck -15.5135 -1.65143 -7.24952
upperneck 25.3142 -1.53223 4.25196
head 10.8068 -0.888128 2.55374
rclavicle -5.59082e-015 2.78299e-015
rhumerus -43.3953 -3.96248 -77.0106
rradius 37.434
rwrist 2.92108
rhand -17.4262 -50.9849
rfingers 7.12502
rthumb 8.82412 -80.7804
lclavicle -5.59082e-015 2.78299e-015
lhumerus -38.8914 8.68278 78.5721
lradius 32.5846
lwrist 16.6838
lhand -34.8708 -27.1004
lfingers 7.12502
lthumb -8.02008 2.72738
rfemur -11.9534 20.8065 12.6829
rtibia 5.27797
rfoot -0.107189 -34.6189
rtoes -6.33205
lfemur -17.9056 -10.7765 -6.34417
ltibia 13.6408
lfoot -7.62488 24.9902
ltoes 0.606322
6
root 1.17058 17.6899 0.00815915 14.2082 1.23281 -3.52045
lowerback -10.6512 -0.753028 6.32983
upperback -6.38584 -1.55911 1.54687
thorax -0.838668 -0.931378 -2.09423
lowerneck -15.2967 -1.9314 -6.67831
upperneck 25.8422 -1.82165 3.19139
head 10.9689 -1.10378 2.03746
rclavicle -1.26849e-014 2.62396e-014
rhumerus -43.5341 -3.83312 -77.055
rradius 37.381
rwrist 2.14334
rhand -18.6594 -49.3238
rfingers 7.12502
rthumb 7.63394 -79.166
lclavicle -1.26849e-014 2.62396e-014
lhumerus -38.8633 8.66321 78.5887
lradius 32.4767
lwrist 16.6683
lhand -34.9748 -27.2148
lfingers 7.12502
lthumb -8.12049 2.60919
rfemur -8.39253 18.7052 13.7177
rtibia 4.90545
rfoot -4.42837 -34.7736
rtoes -0.49053
lfemur -16.233 -12.0778 -7.18106
ltibia 13.7159
lfoot -7.53781 23.7497
ltoes -0.256537
7
root 1.16515 17.6887 0.00989575 14.5278 -0.0726923 -3.79409
lowerback -10.8317 -0.286458 6.36004
upperback -6.47562 -0.956909 1.58349
thorax -0.785758 -0.631328 -2.01883
lowerneck -14.9168 -1.87324 -6.61024
upperneck 25.5286 -1.71344 2.94915
head 10.769 -1.07554 1.94983
rclavicle -3.57812e-015 8.34896e-015
rhumerus -43.6765 -3.75934 -77.0705
rradius 37.3978
rwrist 1.81979
rhand -18.9616 -49.0579
rfingers 7.12502
rthumb 7.34222 -78.9105
lclavicle -3.57812e-015 8.34896e-015
lhumerus -38.92 8.65145 78.5921
lradius 32.4888
lwrist 16.6865
lhand -35.0101 -27.119
lfingers 7.12502
lthumb -8.15453 2.70368
rfemur -8.96984 19.9926 13.4006
rtibia 4.55612
rfoot -4.43717 -34.9153
rtoes 0.522712
lfemur -16.1328 -11.7522 -7.08332
ltibia 13.7526
lfoot -7.82986 24.7119
ltoes 0.147223
8
root 1.16794 17.6875 0.0194643 14.2445 0.511352 -3.64369
lowerback -10.7332 -0.509966 6.33734
upperback -6.34595 -1.24779 1.55401
thorax -0.726484 -0.772122 -2.06459
lowerneck -15.1349 -1.87093 -6.57248
upperneck 25.6246 -1.70941 2.96353
head 10.8468 -1.06811 1.94982
rclavicle 4.47266e-016 -1.55052e-014
rhumerus -43.6119 -3.77425 -77.0666
rradius 37.4254
rwrist 1.92366
rhand -18.3735 -50.009
rfingers 7.12502
rthumb 7.90981 -79.841
lclavicle 4.47266e-016 -1.55052e-014
lhumerus -38.9299 8.71532 78.5834
lradius 32.7524
lwrist 16.6941
lhand -34.8828 -26.7575
lfingers 7.12502
lthumb -8.03163 3.06994
rfemur -8.24617 19.3857 13.6248
rtibia 4.26734
rfoot -4.82154 -34.8437
rtoes 1.4474
lfemur -15.8443 -11.9612 -7.19772
ltibia 13.4843
lfoot -7.57317 24.272
ltoes -0.544066
9
root 1.16991 17.6861 0.0215464 14.0865 0.849978 -3.55455
lowerback -10.6348 -0.634948 6.33881
upperback -6.25292 -1.40918 1.52921
thorax -0.696112 -0.850385 -2.1058
lowerneck -15.3982 -1.89465 -6.58885
upperneck 25.7487 -1.73205 3.00422
head 10.9467 -1.07494 1.96515
rclavicle -1.68967e-014 1.23246e-014
rhumerus -43.4657 -3.86414 -77.0438
rradius 37.3454
rwrist 2.00001
rhand -18.0827 -50.5307
rfingers 7.12502
rthumb 8.19047 -80.352
lclavicle -1.68967e-014 1.23246e-014
lhumerus -38.8398 8.74048 78.5928
lradius 32.8522
lwrist 16.7187
lhand -34.7168 -26.775
lfingers 7.12502
lthumb -7.87144 3.05847
rfemur -7.8788 19.0374 13.7397
rtibia 4.15847
rfoot -5.18599 -34.8276
rtoes 2.09488
lfemur -15.7943 -12.1147 -7.25119
ltibia 13.4842
lfoot -7.56602 24.0115
ltoes -0.868308
10
root 1.17256 17.6853 0.0271103 14.0003 0.909639 -3.50942
lowerback -10.6137 -0.658392 6.34906
upperback -6.22274 -1.44065 1.51737
thorax -0.679204 -0.865462 -2.12678
lowerneck -15.3928 -1.88488 -6.65735
upperneck 25.7561 -1.70748 3.03285
head 10.9482 -1.06706 1.99075
rclavicle 7.96381e-015 -1.03368e-014
rhumerus -43.4588 -3.90897 -77.0117
rradius 37.3093
rwrist 2.03607
rhand -18.0048 -50.7086
rfingers 7.12502
rthumb 8.2657 -80.5269
lclavicle 7.96381e-015 -1.03368e-014
lhumerus -38.8536 8.73579 78.6131
lradius 32.8089
lwrist 16.7736
lhand -34.7174 -26.9511
lfingers 7.12502
lthumb -7.87202 2.88236
rfemur -7.68742 18.966 13.7552
rtibia 4.08792
rfoot -5.14067 -34.8211
rtoes 1.66489
lfemur -15.645 -12.1122 -7.33367
ltibia 13.416
lfoot -7.62471 23.9076
ltoes -1.06495
11
root 1.17417 17.6859 0.0320161 13.9811 0.912404 -3.51975
lowerback -10.6602 -0.660219 6.37291
upperback -6.22959 -1.44864 1.52954
thorax -0.662337 -0.869528 -2.12908
lowerneck -15.2182 -1.86244 -6.70727
upperneck 25.6676 -1.68446 3.0711
head 10.8802 -1.05676 2.01562
rclavicle 1.21756e-014 5.96354e-015
rhumerus -43.5577 -3.83794 -77.0238
rradius 37.3925
rwrist 1.95737
rhand -18.2311 -50.2657
rfingers 7.12502
rthumb 8.04729 -80.0925
lclavicle 1.21756e-014 5.96354e-015
lhumerus -38.9354 8.73663 78.6233
lradius 32.8392
lwrist 16.7412
lhand -34.8322 -26.9625
lfingers 7.12502
lthumb -7.98278 2.86673
rfemur -7.59023 18.9564 13.7742
rtibia 3.98485
rfoot -4.98661 -34.792
rtoes 1.25556
lfemur -15.5821 -12.0972 -7.34675
ltibia 13.4049
lfoot -7.68931 23.928
ltoes -0.941092
12
root 1.17417 17.6862 0.0324297 14.0256 0.939754 -3.52864
lowerback -10.7388 -0.659567 6.37678
upperback -6.20738 -1.45552 1.53028
thorax -0.596884 -0.870728 -2.13322
lowerneck -15.2004 -1.84593 -6.6747
upperneck 25.6147 -1.67688 3.09433
head 10.8561 -1.04658 2.01899
rclavicle 8.21229e-015 -7.95139e-016
rhumerus -43.5157 -3.80789 -77.07
rradius 37.4136
rwrist 1.81556
rhand -18.9234 -49.2313
rfingers 7.12502
rthumb 7.37907 -79.0826
lclavicle 8.21229e-015 -7.95139e-016
lhumerus -38.8809 8.76533 78.6229
lradius 32.9192
lwrist 16.6506
lhand -34.6855 -27.0255
lfingers 7.12502
lthumb -7.84127 2.80905
rfemur -7.58702 18.9199 13.7734
rtibia 3.87523
rfoot -4.98379 -34.7856
rtoes 1.46967
lfemur -15.6609 -12.0818 -7.3222
ltibia 13.4124
lfoot -7.55354 23.9512
ltoes -0.860037
